<svg width="45" height="40" viewBox="0 0 45 40" fill="none" xmlns="http://www.w3.org/2000/svg">
<path d="M20.2084 26C22.0544 26 23.7514 25.365 25.1054 24.312L29.5014 28.708L30.9154 27.294L26.5194 22.898C27.5734 21.543 28.2084 19.846 28.2084 18C28.2084 13.589 24.6194 10 20.2084 10C15.7974 10 12.2084 13.589 12.2084 18C12.2084 22.411 15.7974 26 20.2084 26ZM20.2084 12C23.5174 12 26.2084 14.691 26.2084 18C26.2084 21.309 23.5174 24 20.2084 24C16.8994 24 14.2084 21.309 14.2084 18C14.2084 14.691 16.8994 12 20.2084 12Z" fill="#414141"/>
<path d="M21.6203 16.586C21.9993 16.966 22.2083 17.468 22.2083 18H24.2083C24.2083 16.935 23.7923 15.931 23.0343 15.172C21.5203 13.66 18.8953 13.66 17.3823 15.172L18.7943 16.588C19.5543 15.83 20.8643 15.832 21.6203 16.586Z" fill="#414141"/>
</svg>
