<svg xmlns="http://www.w3.org/2000/svg" xmlns:xlink="http://www.w3.org/1999/xlink" id="Layer_1" x="0px" y="0px" viewBox="0 0 683.2 189.6" style="enable-background:new 0 0 683.2 189.6;" xml:space="preserve">
<style type="text/css">
	.st0{fill:#FFC21A;}
	.st1{fill-rule:evenodd;clip-rule:evenodd;fill:#58595B;}
	.st2{fill-rule:evenodd;clip-rule:evenodd;}
	.st3{fill-rule:evenodd;clip-rule:evenodd;fill:#FFC21A;}
</style>
<g>
	<path d="M300.1,102.1c-1-0.9-1.7-2.1-1.8-3.5L282.4,4c-0.1-0.2-0.1-0.5-0.1-0.9c0-0.8,0.3-1.5,1-2.1c0.6-0.6,1.4-1,2.1-1h19.4   c2.9,0,4.4,1.1,4.7,3.4l9,55.9l10.2-32.4c0.8-2.7,2.4-4,4.9-4h11.1c2.5,0,4.1,1.3,4.9,4l10.2,32.2l9.2-55.8c0.2-1.2,0.6-2,1.3-2.6   c0.7-0.5,1.8-0.8,3.3-0.8h19.4c0.9,0,1.6,0.3,2.2,1c0.6,0.6,0.9,1.4,0.9,2.1V4l-15.8,94.6c-0.2,1.4-0.8,2.5-1.9,3.5   c-1.1,0.9-2.4,1.4-4,1.4h-14.9c-1.6,0-2.8-0.4-3.7-1.2c-0.9-0.8-1.5-1.7-1.8-2.7l-14.6-41l-14.6,41c-0.4,1-1,1.9-1.9,2.7   c-0.9,0.8-2.1,1.2-3.7,1.2h-14.8C302.5,103.5,301.1,103.1,300.1,102.1z"></path>
	<path d="M411.9,102.4c-0.7-0.7-1.1-1.6-1.1-2.6v-96c0-1.1,0.3-2,1-2.7c0.7-0.7,1.6-1.1,2.7-1.1h69.8c1.1,0,2,0.4,2.7,1.1   c0.7,0.7,1.1,1.7,1.1,2.7v14.6c0,1.1-0.4,2-1.1,2.7c-0.7,0.7-1.7,1-2.7,1h-46.7V41H481c1.1,0,2,0.4,2.7,1.1   c0.7,0.7,1.1,1.7,1.1,2.7v13.5c0,1.1-0.4,2-1.1,2.7c-0.7,0.7-1.7,1.1-2.7,1.1h-43.5v19.2h47.9c1.1,0,2,0.4,2.7,1.1   c0.7,0.7,1.1,1.7,1.1,2.7v14.6c0,1.1-0.4,2-1.1,2.7c-0.7,0.7-1.7,1-2.7,1h-71C413.5,103.5,412.6,103.2,411.9,102.4z"></path>
</g>
<g>
	<g>
		<path class="st0" d="M285,187.9c-0.5-0.5-0.7-1.1-0.7-1.7v-64.1c0-0.7,0.2-1.3,0.7-1.8c0.5-0.5,1.1-0.7,1.8-0.7h27.2    c8.7,0,15.5,2,20.4,5.9c4.9,4,7.4,9.5,7.4,16.7c0,4.6-1.1,8.5-3.2,11.8c-2.1,3.2-5.1,5.7-8.8,7.5l13.3,24.1    c0.2,0.4,0.3,0.8,0.3,1.1c0,0.5-0.2,1-0.6,1.4c-0.4,0.4-0.9,0.6-1.5,0.6h-13.9c-1.9,0-3.3-0.9-4-2.7l-10.9-21.4h-9.5v21.6    c0,0.7-0.2,1.3-0.7,1.8c-0.5,0.5-1.1,0.7-1.8,0.7h-13.5C286.1,188.7,285.5,188.4,285,187.9z M313.8,150c2.8,0,5-0.7,6.5-2.1    c1.5-1.4,2.2-3.4,2.2-5.9c0-2.5-0.7-4.5-2.2-6c-1.5-1.5-3.6-2.3-6.5-2.3h-11V150H313.8z"></path>
		<path class="st0" d="M353.7,187.9c-0.5-0.5-0.7-1.1-0.7-1.7v-64.1c0-0.7,0.2-1.3,0.7-1.8c0.5-0.5,1.1-0.7,1.8-0.7H402    c0.7,0,1.3,0.2,1.8,0.7c0.5,0.5,0.7,1.1,0.7,1.8v9.8c0,0.7-0.2,1.3-0.7,1.8c-0.5,0.5-1.1,0.7-1.8,0.7h-31.2v12.5h29    c0.7,0,1.3,0.2,1.8,0.7s0.7,1.1,0.7,1.8v9c0,0.7-0.2,1.3-0.7,1.8c-0.5,0.5-1.1,0.7-1.8,0.7h-29v12.8h32c0.7,0,1.3,0.2,1.8,0.7    c0.5,0.5,0.7,1.1,0.7,1.8v9.8c0,0.7-0.2,1.3-0.7,1.8c-0.5,0.5-1.1,0.7-1.8,0.7h-47.4C354.7,188.7,354.2,188.4,353.7,187.9z"></path>
		<path class="st0" d="M417.1,188c-0.5-0.5-0.7-1.1-0.7-1.8v-64.1c0-0.7,0.2-1.3,0.7-1.8c0.5-0.5,1.1-0.7,1.8-0.7h11.2    c1.6,0,2.8,0.7,3.6,2.2l17,30.4l17.1-30.4c0.7-1.4,1.9-2.2,3.6-2.2h11.2c0.7,0,1.3,0.2,1.8,0.7c0.5,0.5,0.7,1.1,0.7,1.8v64.1    c0,0.7-0.2,1.3-0.7,1.8c-0.5,0.5-1.1,0.7-1.8,0.7h-12.5c-0.7,0-1.2-0.2-1.7-0.7c-0.5-0.5-0.7-1.1-0.7-1.7v-36l-10.7,19.6    c-0.9,1.5-2,2.3-3.5,2.3h-5.3c-1.3,0-2.5-0.8-3.5-2.3l-10.6-19.6v36c0,0.7-0.2,1.3-0.7,1.8c-0.5,0.5-1.1,0.7-1.8,0.7h-12.4    C418.2,188.7,417.6,188.4,417.1,188z"></path>
		<path class="st0" d="M504.9,182.8c-5.4-4.5-8.3-11.2-8.6-20.1c-0.1-1.8-0.1-4.7-0.1-8.5c0-3.8,0-6.7,0.1-8.6    c0.3-8.7,3.1-15.4,8.6-20.1c5.5-4.7,12.9-7.1,22.1-7.1c9.2,0,16.5,2.4,22,7.1c5.5,4.7,8.4,11.4,8.6,20.1c0.1,3.8,0.2,6.7,0.2,8.6    c0,2-0.1,4.8-0.2,8.5c-0.3,8.8-3.2,15.5-8.5,20.1c-5.4,4.5-12.7,6.8-22.1,6.8C517.7,189.6,510.3,187.4,504.9,182.8z M535.3,171.7    c2-2.1,3.1-5.3,3.3-9.5c0.1-3.8,0.2-6.6,0.2-8.2c0-1.6-0.1-4.3-0.2-8c-0.1-4.3-1.2-7.5-3.3-9.5c-2-2.1-4.8-3.1-8.2-3.1    c-3.5,0-6.3,1-8.3,3.1c-2,2.1-3.1,5.3-3.3,9.5c-0.1,1.8-0.1,4.5-0.1,8c0,3.6,0,6.3,0.1,8.2c0.1,4.3,1.2,7.5,3.3,9.5    c2,2.1,4.8,3.1,8.3,3.1C530.5,174.8,533.2,173.8,535.3,171.7z"></path>
		<path class="st0" d="M584,188c-0.5-0.5-0.7-1.1-0.7-1.8v-50.6h-17.4c-0.7,0-1.3-0.2-1.8-0.7c-0.5-0.5-0.7-1.1-0.7-1.8v-11.1    c0-0.7,0.2-1.3,0.7-1.8c0.5-0.5,1.1-0.7,1.8-0.7h53.6c0.7,0,1.3,0.2,1.8,0.7c0.5,0.5,0.7,1.1,0.7,1.8v11.1c0,0.7-0.2,1.3-0.7,1.8    c-0.5,0.5-1.1,0.7-1.8,0.7h-17.4v50.6c0,0.7-0.2,1.3-0.7,1.8c-0.5,0.5-1.1,0.7-1.8,0.7h-13.7C585.1,188.7,584.5,188.4,584,188z"></path>
		<path class="st0" d="M631.5,187.9c-0.5-0.5-0.7-1.1-0.7-1.7v-64.1c0-0.7,0.2-1.3,0.7-1.8c0.5-0.5,1.1-0.7,1.8-0.7h46.6    c0.7,0,1.3,0.2,1.8,0.7c0.5,0.5,0.7,1.1,0.7,1.8v9.8c0,0.7-0.2,1.3-0.7,1.8c-0.5,0.5-1.1,0.7-1.8,0.7h-31.2v12.5h29    c0.7,0,1.3,0.2,1.8,0.7s0.7,1.1,0.7,1.8v9c0,0.7-0.2,1.3-0.7,1.8c-0.5,0.5-1.1,0.7-1.8,0.7h-29v12.8h32c0.7,0,1.3,0.2,1.8,0.7    c0.5,0.5,0.7,1.1,0.7,1.8v9.8c0,0.7-0.2,1.3-0.7,1.8c-0.5,0.5-1.1,0.7-1.8,0.7h-47.4C632.6,188.7,632,188.4,631.5,187.9z"></path>
	</g>
</g>
<path class="st1" d="M28.4,189.6L28.4,189.6C12.8,189.6,0,176.8,0,161.2V28.4C0,12.8,12.8,0,28.4,0l0,0c15.6,0,28.4,12.8,28.4,28.4  v132.7C56.9,176.8,44.1,189.6,28.4,189.6z"></path>
<path class="st2" d="M216.1,56.9L216.1,56.9c-15.6,0-28.4-12.8-28.4-28.4v0c0-15.6,12.8-28.4,28.4-28.4l0,0  c15.6,0,28.4,12.8,28.4,28.4v0C244.5,44.1,231.7,56.9,216.1,56.9z"></path>
<path class="st3" d="M8.3,181.3L8.3,181.3c-11.1-11.1-11.1-29.2,0-40.2l94-93.9c11.1-11,29.1-10.9,40.1,0.1l93.9,93.9  c11.1,11.1,11.1,29.2,0,40.2h0c-11.1,11.1-29.2,11.1-40.2,0l-64.7-64.7c-2.4-2-5.6-3.2-8.9-3.2h0c-3.8,0-7.3,1.5-9.9,4l-63.9,63.9  C37.5,192.4,19.4,192.4,8.3,181.3z"></path>
</svg>